<svg width="297" height="164" viewBox="0 0 297 164" fill="none" xmlns="http://www.w3.org/2000/svg">
<path d="M12 -7.15256e-07V24H0V-7.15256e-07H12ZM23.9922 -7.15256e-07V24H11.9922V-7.15256e-07H23.9922ZM32.3844 8.6V28H30.7844V10.2H23.8844V8.6H32.3844ZM29.1844 11.8V28H27.5844V13.4H23.8844V11.8H29.1844ZM71.9609 -7.15256e-07V24H59.9609V-7.15256e-07H71.9609ZM83.9531 -7.15256e-07V24H71.9531V-7.15256e-07H83.9531ZM92.3453 8.6V28H90.7453V10.2H83.8453V8.6H92.3453ZM89.1453 11.8V28H87.5453V13.4H83.8453V11.8H89.1453ZM119.93 -7.15256e-07V24H107.93V-7.15256e-07H119.93ZM131.922 -7.15256e-07V24H119.922V-7.15256e-07H131.922ZM143.914 -7.15256e-07V24H131.914V-7.15256e-07H143.914ZM155.906 -7.15256e-07V24H143.906V-7.15256e-07H155.906ZM167.898 -7.15256e-07V24H155.898V-7.15256e-07H167.898ZM179.891 -7.15256e-07V24H167.891V-7.15256e-07H179.891ZM188.283 8.6V28H186.683V10.2H179.783V8.6H188.283ZM185.083 11.8V28H183.483V13.4H179.783V11.8H185.083ZM215.867 -7.15256e-07V24H203.867V-7.15256e-07H215.867ZM227.859 -7.15256e-07V24H215.859V-7.15256e-07H227.859ZM236.252 8.6V28H234.652V10.2H227.752V8.6H236.252ZM233.052 11.8V28H231.452V13.4H227.752V11.8H233.052ZM275.828 -7.15256e-07V24H263.828V-7.15256e-07H275.828ZM287.82 -7.15256e-07V24H275.82V-7.15256e-07H287.82ZM296.213 8.6V28H294.613V10.2H287.712V8.6H296.213ZM293.013 11.8V28H291.413V13.4H287.712V11.8H293.013ZM12 30V54H0V30H12ZM23.9922 30V54H11.9922V30H23.9922ZM32.3844 28V58H30.7844V28H32.3844ZM29.1844 28V58H27.5844V28H29.1844ZM71.9609 30V54H59.9609V30H71.9609ZM83.9531 30V54H71.9531V30H83.9531ZM92.3453 28V58H90.7453V28H92.3453ZM89.1453 28V58H87.5453V28H89.1453ZM107.938 30V54H95.9375V30H107.938ZM119.93 30V54H107.93V30H119.93ZM132.022 38.6V40.2H125.122V58H123.522V38.6H132.022ZM132.022 41.8V43.4H128.322V58H126.722V41.8H132.022ZM144.014 38.6V40.2H131.814V38.6H144.014ZM144.014 41.8V43.4H131.814V41.8H144.014ZM155.906 30V54H143.906V30H155.906ZM167.898 30V54H155.898V30H167.898ZM179.891 30V54H167.891V30H179.891ZM191.883 30V54H179.883V30H191.883ZM200.275 38.6V58H198.675V40.2H191.775V38.6H200.275ZM197.075 41.8V58H195.475V43.4H191.775V41.8H197.075ZM215.867 30V54H203.867V30H215.867ZM227.859 30V54H215.859V30H227.859ZM236.252 28V58H234.652V28H236.252ZM233.052 28V58H231.452V28H233.052ZM275.828 30V54H263.828V30H275.828ZM287.82 30V54H275.82V30H287.82ZM296.213 28V58H294.613V28H296.213ZM293.013 28V58H291.413V28H293.013ZM12 60V84H0V60H12ZM23.9922 60V84H11.9922V60H23.9922ZM35.9844 60V84H23.9844V60H35.9844ZM47.9766 60V84H35.9766V60H47.9766ZM59.9688 60V84H47.9688V60H59.9688ZM71.9609 60V84H59.9609V60H71.9609ZM83.9531 60V84H71.9531V60H83.9531ZM92.3453 58V88H90.7453V58H92.3453ZM89.1453 58V88H87.5453V58H89.1453ZM107.938 60V84H95.9375V60H107.938ZM119.93 60V84H107.93V60H119.93ZM128.322 58V88H126.722V58H128.322ZM125.122 58V88H123.522V58H125.122ZM143.914 60V84H131.914V60H143.914ZM155.906 60V84H143.906V60H155.906ZM167.998 68.6V70.2H161.098V88H159.498V68.6H167.998ZM167.998 71.8V73.4H164.298V88H162.698V71.8H167.998ZM179.891 60V84H167.891V60H179.891ZM191.883 60V84H179.883V60H191.883ZM200.275 58V88H198.675V58H200.275ZM197.075 58V88H195.475V58H197.075ZM215.867 60V84H203.867V60H215.867ZM227.859 60V84H215.859V60H227.859ZM239.852 60V84H227.852V60H239.852ZM251.844 60V84H239.844V60H251.844ZM263.836 60V84H251.836V60H263.836ZM275.828 60V84H263.828V60H275.828ZM287.82 60V84H275.82V60H287.82ZM296.213 58V88H294.613V58H296.213ZM293.013 58V88H291.413V58H293.013ZM5.2 88V101.8H12.1V103.4H3.6V88H5.2ZM8.4 88V98.6H12.1V100.2H6.8V88H8.4ZM24.0922 98.6V100.2H11.8922V98.6H24.0922ZM24.0922 101.8V103.4H11.8922V101.8H24.0922ZM36.0844 98.6V100.2H23.8844V98.6H36.0844ZM36.0844 101.8V103.4H23.8844V101.8H36.0844ZM48.0766 98.6V100.2H35.8766V98.6H48.0766ZM48.0766 101.8V103.4H35.8766V101.8H48.0766ZM60.0688 98.6V100.2H47.8687V98.6H60.0688ZM60.0688 101.8V103.4H47.8687V101.8H60.0688ZM71.9609 90V114H59.9609V90H71.9609ZM83.9531 90V114H71.9531V90H83.9531ZM92.3453 88V118H90.7453V88H92.3453ZM89.1453 88V118H87.5453V88H89.1453ZM107.938 90V114H95.9375V90H107.938ZM119.93 90V114H107.93V90H119.93ZM131.922 90V114H119.922V90H131.922ZM143.914 90V114H131.914V90H143.914ZM156.006 98.6V100.2H149.106V118H147.506V98.6H156.006ZM156.006 101.8V103.4H152.306V118H150.706V101.8H156.006ZM164.298 88V103.4H155.798V101.8H162.698V88H164.298ZM161.098 88V100.2H155.798V98.6H159.498V88H161.098ZM179.891 90V114H167.891V90H179.891ZM191.883 90V114H179.883V90H191.883ZM200.275 88V118H198.675V88H200.275ZM197.075 88V118H195.475V88H197.075ZM209.067 88V101.8H215.967V103.4H207.467V88H209.067ZM212.267 88V98.6H215.967V100.2H210.667V88H212.267ZM227.959 98.6V100.2H215.759V98.6H227.959ZM227.959 101.8V103.4H215.759V101.8H227.959ZM239.952 98.6V100.2H227.752V98.6H239.952ZM239.952 101.8V103.4H227.752V101.8H239.952ZM251.944 98.6V100.2H239.744V98.6H251.944ZM251.944 101.8V103.4H239.744V101.8H251.944ZM263.936 98.6V100.2H251.736V98.6H263.936ZM263.936 101.8V103.4H251.736V101.8H263.936ZM275.828 90V114H263.828V90H275.828ZM287.82 90V114H275.82V90H287.82ZM296.213 88V118H294.613V88H296.213ZM293.013 88V118H291.413V88H293.013ZM71.9609 120V144H59.9609V120H71.9609ZM83.9531 120V144H71.9531V120H83.9531ZM92.3453 118V148H90.7453V118H92.3453ZM89.1453 118V148H87.5453V118H89.1453ZM101.138 118V131.8H108.038V133.4H99.5375V118H101.138ZM104.338 118V128.6H108.038V130.2H102.738V118H104.338ZM119.93 120V144H107.93V120H119.93ZM131.922 120V144H119.922V120H131.922ZM143.914 120V144H131.914V120H143.914ZM155.906 120V144H143.906V120H155.906ZM167.898 120V144H155.898V120H167.898ZM179.891 120V144H167.891V120H179.891ZM191.983 128.6V130.2H185.083V148H183.483V128.6H191.983ZM191.983 131.8V133.4H188.283V148H186.683V131.8H191.983ZM200.275 118V133.4H191.775V131.8H198.675V118H200.275ZM197.075 118V130.2H191.775V128.6H195.475V118H197.075ZM275.828 120V144H263.828V120H275.828ZM287.82 120V144H275.82V120H287.82ZM296.213 118V148H294.613V118H296.213ZM293.013 118V148H291.413V118H293.013ZM65.1609 148V161.8H72.0609V163.4H63.5609V148H65.1609ZM68.3609 148V158.6H72.0609V160.2H66.7609V148H68.3609ZM84.0531 158.6V160.2H71.8531V158.6H84.0531ZM84.0531 161.8V163.4H71.8531V161.8H84.0531ZM92.3453 148V163.4H83.8453V161.8H90.7453V148H92.3453ZM89.1453 148V160.2H83.8453V158.6H87.5453V148H89.1453ZM113.13 148V161.8H120.03V163.4H111.53V148H113.13ZM116.33 148V158.6H120.03V160.2H114.73V148H116.33ZM132.022 158.6V160.2H119.822V158.6H132.022ZM132.022 161.8V163.4H119.822V161.8H132.022ZM144.014 158.6V160.2H131.814V158.6H144.014ZM144.014 161.8V163.4H131.814V161.8H144.014ZM156.006 158.6V160.2H143.806V158.6H156.006ZM156.006 161.8V163.4H143.806V161.8H156.006ZM167.998 158.6V160.2H155.798V158.6H167.998ZM167.998 161.8V163.4H155.798V161.8H167.998ZM179.991 158.6V160.2H167.791V158.6H179.991ZM179.991 161.8V163.4H167.791V161.8H179.991ZM188.283 148V163.4H179.783V161.8H186.683V148H188.283ZM185.083 148V160.2H179.783V158.6H183.483V148H185.083ZM269.028 148V161.8H275.928V163.4H267.428V148H269.028ZM272.228 148V158.6H275.928V160.2H270.628V148H272.228ZM287.92 158.6V160.2H275.72V158.6H287.92ZM287.92 161.8V163.4H275.72V161.8H287.92ZM296.213 148V163.4H287.712V161.8H294.613V148H296.213ZM293.013 148V160.2H287.712V158.6H291.413V148H293.013Z" fill="#90A1B9"/>
</svg>
